P3
64 16
255
90 210 110
70 190 90
70 190 90
70 190 90
90 210 110
70 190 90
70 190 90
70 190 90
90 210 110
70 190 90
70 190 90
70 190 90
90 210 110
70 190 90
70 190 90
70 190 90
140 110 80
120 90 60
120 90 60
120 90 60
140 110 80
120 90 60
120 90 60
120 90 60
140 110 80
120 90 60
120 90 60
120 90 60
140 110 80
120 90 60
120 90 60
120 90 60
100 160 240
80 140 220
80 140 220
80 140 220
100 160 240
80 140 220
80 140 220
80 140 220
100 160 240
80 140 220
80 140 220
80 140 220
100 160 240
80 140 220
80 140 220
80 140 220
230 230 140
210 210 120
210 210 120
210 210 120
230 230 140
210 210 120
210 210 120
210 210 120
230 230 140
210 210 120
210 210 120
210 210 120
230 230 140
210 210 120
210 210 120
210 210 120
70 190 90
70 190 90
70 190 90
90 210 110
70 190 90
70 190 90
70 190 90
90 210 110
70 190 90
70 190 90
70 190 90
90 210 110
70 190 90
70 190 90
70 190 90
90 210 110
120 90 60
120 90 60
120 90 60
140 110 80
120 90 60
120 90 60
120 90 60
140 110 80
120 90 60
120 90 60
120 90 60
140 110 80
120 90 60
120 90 60
120 90 60
140 110 80
80 140 220
80 140 220
80 140 220
100 160 240
80 140 220
80 140 220
80 140 220
100 160 240
80 140 220
80 140 220
80 140 220
100 160 240
80 140 220
80 140 220
80 140 220
100 160 240
210 210 120
210 210 120
210 210 120
230 230 140
210 210 120
210 210 120
210 210 120
230 230 140
210 210 120
210 210 120
210 210 120
230 230 140
210 210 120
210 210 120
210 210 120
230 230 140
70 190 90
70 190 90
90 210 110
70 190 90
70 190 90
70 190 90
90 210 110
70 190 90
70 190 90
70 190 90
90 210 110
70 190 90
70 190 90
70 190 90
90 210 110
70 190 90
120 90 60
120 90 60
140 110 80
120 90 60
120 90 60
120 90 60
140 110 80
120 90 60
120 90 60
120 90 60
140 110 80
120 90 60
120 90 60
120 90 60
140 110 80
120 90 60
80 140 220
80 140 220
100 160 240
80 140 220
80 140 220
80 140 220
100 160 240
80 140 220
80 140 220
80 140 220
100 160 240
80 140 220
80 140 220
80 140 220
100 160 240
80 140 220
210 210 120
210 210 120
230 230 140
210 210 120
210 210 120
210 210 120
230 230 140
210 210 120
210 210 120
210 210 120
230 230 140
210 210 120
210 210 120
210 210 120
230 230 140
210 210 120
70 190 90
90 210 110
70 190 90
70 190 90
70 190 90
90 210 110
70 190 90
70 190 90
70 190 90
90 210 110
70 190 90
70 190 90
70 190 90
90 210 110
70 190 90
70 190 90
120 90 60
140 110 80
120 90 60
120 90 60
120 90 60
140 110 80
120 90 60
120 90 60
120 90 60
140 110 80
120 90 60
120 90 60
120 90 60
140 110 80
120 90 60
120 90 60
80 140 220
100 160 240
80 140 220
80 140 220
80 140 220
100 160 240
80 140 220
80 140 220
80 140 220
100 160 240
80 140 220
80 140 220
80 140 220
100 160 240
80 140 220
80 140 220
210 210 120
230 230 140
210 210 120
210 210 120
210 210 120
230 230 140
210 210 120
210 210 120
210 210 120
230 230 140
210 210 120
210 210 120
210 210 120
230 230 140
210 210 120
210 210 120
90 210 110
70 190 90
70 190 90
70 190 90
90 210 110
70 190 90
70 190 90
70 190 90
90 210 110
70 190 90
70 190 90
70 190 90
90 210 110
70 190 90
70 190 90
70 190 90
140 110 80
120 90 60
120 90 60
120 90 60
140 110 80
120 90 60
120 90 60
120 90 60
140 110 80
120 90 60
120 90 60
120 90 60
140 110 80
120 90 60
120 90 60
120 90 60
100 160 240
80 140 220
80 140 220
80 140 220
100 160 240
80 140 220
80 140 220
80 140 220
100 160 240
80 140 220
80 140 220
80 140 220
100 160 240
80 140 220
80 140 220
80 140 220
230 230 140
210 210 120
210 210 120
210 210 120
230 230 140
210 210 120
210 210 120
210 210 120
230 230 140
210 210 120
210 210 120
210 210 120
230 230 140
210 210 120
210 210 120
210 210 120
70 190 90
70 190 90
70 190 90
90 210 110
70 190 90
70 190 90
70 190 90
90 210 110
70 190 90
70 190 90
70 190 90
90 210 110
70 190 90
70 190 90
70 190 90
90 210 110
120 90 60
120 90 60
120 90 60
140 110 80
120 90 60
120 90 60
120 90 60
140 110 80
120 90 60
120 90 60
120 90 60
140 110 80
120 90 60
120 90 60
120 90 60
140 110 80
80 140 220
80 140 220
80 140 220
100 160 240
80 140 220
80 140 220
80 140 220
100 160 240
80 140 220
80 140 220
80 140 220
100 160 240
80 140 220
80 140 220
80 140 220
100 160 240
210 210 120
210 210 120
210 210 120
230 230 140
210 210 120
210 210 120
210 210 120
230 230 140
210 210 120
210 210 120
210 210 120
230 230 140
210 210 120
210 210 120
210 210 120
230 230 140
70 190 90
70 190 90
90 210 110
70 190 90
70 190 90
70 190 90
90 210 110
70 190 90
70 190 90
70 190 90
90 210 110
70 190 90
70 190 90
70 190 90
90 210 110
70 190 90
120 90 60
120 90 60
140 110 80
120 90 60
120 90 60
120 90 60
140 110 80
120 90 60
120 90 60
120 90 60
140 110 80
120 90 60
120 90 60
120 90 60
140 110 80
120 90 60
80 140 220
80 140 220
100 160 240
80 140 220
80 140 220
80 140 220
100 160 240
80 140 220
80 140 220
80 140 220
100 160 240
80 140 220
80 140 220
80 140 220
100 160 240
80 140 220
210 210 120
210 210 120
230 230 140
210 210 120
210 210 120
210 210 120
230 230 140
210 210 120
210 210 120
210 210 120
230 230 140
210 210 120
210 210 120
210 210 120
230 230 140
210 210 120
70 190 90
90 210 110
70 190 90
70 190 90
70 190 90
90 210 110
70 190 90
70 190 90
70 190 90
90 210 110
70 190 90
70 190 90
70 190 90
90 210 110
70 190 90
70 190 90
120 90 60
140 110 80
120 90 60
120 90 60
120 90 60
140 110 80
120 90 60
120 90 60
120 90 60
140 110 80
120 90 60
120 90 60
120 90 60
140 110 80
120 90 60
120 90 60
80 140 220
100 160 240
80 140 220
80 140 220
80 140 220
100 160 240
80 140 220
80 140 220
80 140 220
100 160 240
80 140 220
80 140 220
80 140 220
100 160 240
80 140 220
80 140 220
210 210 120
230 230 140
210 210 120
210 210 120
210 210 120
230 230 140
210 210 120
210 210 120
210 210 120
230 230 140
210 210 120
210 210 120
210 210 120
230 230 140
210 210 120
210 210 120
90 210 110
70 190 90
70 190 90
70 190 90
90 210 110
70 190 90
70 190 90
70 190 90
90 210 110
70 190 90
70 190 90
70 190 90
90 210 110
70 190 90
70 190 90
70 190 90
140 110 80
120 90 60
120 90 60
120 90 60
140 110 80
120 90 60
120 90 60
120 90 60
140 110 80
120 90 60
120 90 60
120 90 60
140 110 80
120 90 60
120 90 60
120 90 60
100 160 240
80 140 220
80 140 220
80 140 220
100 160 240
80 140 220
80 140 220
80 140 220
100 160 240
80 140 220
80 140 220
80 140 220
100 160 240
80 140 220
80 140 220
80 140 220
230 230 140
210 210 120
210 210 120
210 210 120
230 230 140
210 210 120
210 210 120
210 210 120
230 230 140
210 210 120
210 210 120
210 210 120
230 230 140
210 210 120
210 210 120
210 210 120
70 190 90
70 190 90
70 190 90
90 210 110
70 190 90
70 190 90
70 190 90
90 210 110
70 190 90
70 190 90
70 190 90
90 210 110
70 190 90
70 190 90
70 190 90
90 210 110
120 90 60
120 90 60
120 90 60
140 110 80
120 90 60
120 90 60
120 90 60
140 110 80
120 90 60
120 90 60
120 90 60
140 110 80
120 90 60
120 90 60
120 90 60
140 110 80
80 140 220
80 140 220
80 140 220
100 160 240
80 140 220
80 140 220
80 140 220
100 160 240
80 140 220
80 140 220
80 140 220
100 160 240
80 140 220
80 140 220
80 140 220
100 160 240
210 210 120
210 210 120
210 210 120
230 230 140
210 210 120
210 210 120
210 210 120
230 230 140
210 210 120
210 210 120
210 210 120
230 230 140
210 210 120
210 210 120
210 210 120
230 230 140
70 190 90
70 190 90
90 210 110
70 190 90
70 190 90
70 190 90
90 210 110
70 190 90
70 190 90
70 190 90
90 210 110
70 190 90
70 190 90
70 190 90
90 210 110
70 190 90
120 90 60
120 90 60
140 110 80
120 90 60
120 90 60
120 90 60
140 110 80
120 90 60
120 90 60
120 90 60
140 110 80
120 90 60
120 90 60
120 90 60
140 110 80
120 90 60
80 140 220
80 140 220
100 160 240
80 140 220
80 140 220
80 140 220
100 160 240
80 140 220
80 140 220
80 140 220
100 160 240
80 140 220
80 140 220
80 140 220
100 160 240
80 140 220
210 210 120
210 210 120
230 230 140
210 210 120
210 210 120
210 210 120
230 230 140
210 210 120
210 210 120
210 210 120
230 230 140
210 210 120
210 210 120
210 210 120
230 230 140
210 210 120
70 190 90
90 210 110
70 190 90
70 190 90
70 190 90
90 210 110
70 190 90
70 190 90
70 190 90
90 210 110
70 190 90
70 190 90
70 190 90
90 210 110
70 190 90
70 190 90
120 90 60
140 110 80
120 90 60
120 90 60
120 90 60
140 110 80
120 90 60
120 90 60
120 90 60
140 110 80
120 90 60
120 90 60
120 90 60
140 110 80
120 90 60
120 90 60
80 140 220
100 160 240
80 140 220
80 140 220
80 140 220
100 160 240
80 140 220
80 140 220
80 140 220
100 160 240
80 140 220
80 140 220
80 140 220
100 160 240
80 140 220
80 140 220
210 210 120
230 230 140
210 210 120
210 210 120
210 210 120
230 230 140
210 210 120
210 210 120
210 210 120
230 230 140
210 210 120
210 210 120
210 210 120
230 230 140
210 210 120
210 210 120
90 210 110
70 190 90
70 190 90
70 190 90
90 210 110
70 190 90
70 190 90
70 190 90
90 210 110
70 190 90
70 190 90
70 190 90
90 210 110
70 190 90
70 190 90
70 190 90
140 110 80
120 90 60
120 90 60
120 90 60
140 110 80
120 90 60
120 90 60
120 90 60
140 110 80
120 90 60
120 90 60
120 90 60
140 110 80
120 90 60
120 90 60
120 90 60
100 160 240
80 140 220
80 140 220
80 140 220
100 160 240
80 140 220
80 140 220
80 140 220
100 160 240
80 140 220
80 140 220
80 140 220
100 160 240
80 140 220
80 140 220
80 140 220
230 230 140
210 210 120
210 210 120
210 210 120
230 230 140
210 210 120
210 210 120
210 210 120
230 230 140
210 210 120
210 210 120
210 210 120
230 230 140
210 210 120
210 210 120
210 210 120
70 190 90
70 190 90
70 190 90
90 210 110
70 190 90
70 190 90
70 190 90
90 210 110
70 190 90
70 190 90
70 190 90
90 210 110
70 190 90
70 190 90
70 190 90
90 210 110
120 90 60
120 90 60
120 90 60
140 110 80
120 90 60
120 90 60
120 90 60
140 110 80
120 90 60
120 90 60
120 90 60
140 110 80
120 90 60
120 90 60
120 90 60
140 110 80
80 140 220
80 140 220
80 140 220
100 160 240
80 140 220
80 140 220
80 140 220
100 160 240
80 140 220
80 140 220
80 140 220
100 160 240
80 140 220
80 140 220
80 140 220
100 160 240
210 210 120
210 210 120
210 210 120
230 230 140
210 210 120
210 210 120
210 210 120
230 230 140
210 210 120
210 210 120
210 210 120
230 230 140
210 210 120
210 210 120
210 210 120
230 230 140
70 190 90
70 190 90
90 210 110
70 190 90
70 190 90
70 190 90
90 210 110
70 190 90
70 190 90
70 190 90
90 210 110
70 190 90
70 190 90
70 190 90
90 210 110
70 190 90
120 90 60
120 90 60
140 110 80
120 90 60
120 90 60
120 90 60
140 110 80
120 90 60
120 90 60
120 90 60
140 110 80
120 90 60
120 90 60
120 90 60
140 110 80
120 90 60
80 140 220
80 140 220
100 160 240
80 140 220
80 140 220
80 140 220
100 160 240
80 140 220
80 140 220
80 140 220
100 160 240
80 140 220
80 140 220
80 140 220
100 160 240
80 140 220
210 210 120
210 210 120
230 230 140
210 210 120
210 210 120
210 210 120
230 230 140
210 210 120
210 210 120
210 210 120
230 230 140
210 210 120
210 210 120
210 210 120
230 230 140
210 210 120
70 190 90
90 210 110
70 190 90
70 190 90
70 190 90
90 210 110
70 190 90
70 190 90
70 190 90
90 210 110
70 190 90
70 190 90
70 190 90
90 210 110
70 190 90
70 190 90
120 90 60
140 110 80
120 90 60
120 90 60
120 90 60
140 110 80
120 90 60
120 90 60
120 90 60
140 110 80
120 90 60
120 90 60
120 90 60
140 110 80
120 90 60
120 90 60
80 140 220
100 160 240
80 140 220
80 140 220
80 140 220
100 160 240
80 140 220
80 140 220
80 140 220
100 160 240
80 140 220
80 140 220
80 140 220
100 160 240
80 140 220
80 140 220
210 210 120
230 230 140
210 210 120
210 210 120
210 210 120
230 230 140
210 210 120
210 210 120
210 210 120
230 230 140
210 210 120
210 210 120
210 210 120
230 230 140
210 210 120
210 210 120
